<svg id="visual" viewBox="0 0 1500 900" width="1500" height="900" xmlns="http://www.w3.org/2000/svg" xmlns:xlink="http://www.w3.org/1999/xlink" version="1.1"><path d="M0 745L35.7 743.3C71.3 741.7 142.7 738.3 214.2 742.8C285.7 747.3 357.3 759.7 428.8 754.7C500.3 749.7 571.7 727.3 643 712.5C714.3 697.7 785.7 690.3 857 685C928.3 679.7 999.7 676.3 1071.2 670C1142.7 663.7 1214.3 654.3 1285.8 662.3C1357.3 670.3 1428.7 695.7 1464.3 708.3L1500 721L1500 901L1464.3 901C1428.7 901 1357.3 901 1285.8 901C1214.3 901 1142.7 901 1071.2 901C999.7 901 928.3 901 857 901C785.7 901 714.3 901 643 901C571.7 901 500.3 901 428.8 901C357.3 901 285.7 901 214.2 901C142.7 901 71.3 901 35.7 901L0 901Z" fill="#AED36C" stroke-linecap="round" stroke-linejoin="miter"></path></svg>