<svg xmlns="http://www.w3.org/2000/svg" xmlns:xlink="http://www.w3.org/1999/xlink" width="1500" zoomAndPan="magnify" viewBox="0 0 1125 675.000002" height="900" preserveAspectRatio="xMidYMid meet" version="1.0"><defs><clipPath id="77662c4f8a"><path d="M 0.832031 0 L 1124.167969 0 L 1124.167969 674 L 0.832031 674 Z M 0.832031 0 " clip-rule="nonzero"/></clipPath><clipPath id="6f935b5611"><path d="M 0.832031 0 L 444.175781 0 L 444.175781 674 L 0.832031 674 Z M 0.832031 0 " clip-rule="nonzero"/></clipPath><clipPath id="a859261a84"><path d="M 0.832031 0 L 296 0 L 296 295 L 0.832031 295 Z M 0.832031 0 " clip-rule="nonzero"/></clipPath><clipPath id="c93c6a29b0"><path d="M 0.832031 348.132812 L 1004.34375 348.132812 L 1004.34375 673.898438 L 0.832031 673.898438 Z M 0.832031 348.132812 " clip-rule="nonzero"/></clipPath><clipPath id="87430d16fe"><path d="M 0.832031 397 L 278 397 L 278 673.898438 L 0.832031 673.898438 Z M 0.832031 397 " clip-rule="nonzero"/></clipPath></defs><g clip-path="url(#77662c4f8a)"><path fill="#ffffff" d="M 0.832031 0 L 1124.167969 0 L 1124.167969 681.492188 L 0.832031 681.492188 Z M 0.832031 0 " fill-opacity="1" fill-rule="nonzero"/><path fill="#ffffff" d="M 0.832031 0 L 1124.167969 0 L 1124.167969 674 L 0.832031 674 Z M 0.832031 0 " fill-opacity="1" fill-rule="nonzero"/><path fill="#ffffff" d="M 0.832031 0 L 1124.167969 0 L 1124.167969 674 L 0.832031 674 Z M 0.832031 0 " fill-opacity="1" fill-rule="nonzero"/></g><g clip-path="url(#6f935b5611)"><path fill="#ffffff" d="M 0.832031 0 L 1124.167969 0 L 1124.167969 674 L 0.832031 674 Z M 0.832031 0 " fill-opacity="1" fill-rule="nonzero"/></g><g clip-path="url(#a859261a84)"><path fill="#aed36c" d="M 295.59375 0 C 289.230469 35.871094 282.863281 71.742188 271.332031 112.035156 C 259.875 152.324219 243.171875 197.03125 209.25 208.417969 C 175.324219 219.875 124.097656 198.007812 86.503906 206.84375 C 48.910156 215.753906 24.871094 255.222656 0.832031 294.761719 L 0.832031 0 Z M 295.59375 0 " fill-opacity="1" fill-rule="nonzero"/></g><g clip-path="url(#c93c6a29b0)"><path fill="#ffffff" d="M 0.832031 -138.300781 L 1354.824219 -138.300781 L 1354.824219 674.242188 L 0.832031 674.242188 Z M 0.832031 -138.300781 " fill-opacity="1" fill-rule="nonzero"/></g><g clip-path="url(#87430d16fe)"><path fill="#aed36c" d="M 0.832031 397.886719 C 26.648438 431.292969 52.375 464.789062 81.621094 479.050781 C 110.957031 493.316406 143.632812 488.441406 175.679688 499.367188 C 207.8125 510.199219 239.316406 536.742188 256.105469 568.523438 C 272.894531 600.210938 275.0625 637.226562 277.136719 674.242188 L 0.832031 674.242188 Z M 0.832031 397.886719 " fill-opacity="1" fill-rule="nonzero"/></g></svg>