<svg id="visual" viewBox="0 0 900 900" width="900" height="900" xmlns="http://www.w3.org/2000/svg" xmlns:xlink="http://www.w3.org/1999/xlink" version="1.1"><g transform="translate(1002.4718729547849 41.33564523632374)"><path d="M121.5 -208.8C176.4 -178.8 252.7 -184.4 271.2 -155.5C289.7 -126.7 250.4 -63.3 239 -6.6C227.6 50.2 244.1 100.3 224.5 127.3C204.9 154.3 149.2 158.1 105.8 163C62.3 168 31.2 174 -13.6 197.5C-58.3 221 -116.7 262.1 -137 243.8C-157.3 225.5 -139.5 147.9 -194.4 97.4C-249.2 46.9 -376.6 23.4 -437.5 -35.2C-498.4 -93.7 -492.8 -187.5 -436.8 -236C-380.8 -284.5 -274.4 -287.7 -193.2 -302.5C-112 -317.3 -56 -343.7 -11.3 -324C33.3 -304.4 66.7 -238.8 121.5 -208.8" fill="#AED36C"></path></g></svg>